# xmcd
#
# Track frame offsets:
#	150
#	12476
#	27063
#	39728
#	62898
#	77708
#	94984
#	109838
#	123955
#	149610
#
# Disc length: 2230 seconds
#
# Revision: 2
# Processed by: cddbd v1.5.2PL0 Copyright (c) Steve Scherf et al.
# Submitted via: audiograbber 1.83.01
#
DISCID=8808b40a
DTITLE=Blues Connection - A Lighter Shade of Blues
DYEAR=1900
DGENRE=Blues
TTITLE0=Let Me Up
TTITLE1=Rolling Man
TTITLE2=Tush
TTITLE3=The Thrill is Gone
TTITLE4=All About You
TTITLE5=Cheap Sunglasses
TTITLE6=Who Do You Love
TTITLE7=Pride and Joy
TTITLE8=Stormy Monday
TTITLE9=La Grange
EXTD=
EXTT0=
EXTT1=
EXTT2=
EXTT3=
EXTT4=
EXTT5=
EXTT6=
EXTT7=
EXTT8=
EXTT9=
PLAYORDER=
